<?xml version="1.0" encoding="UTF-8"?>
<svg id="Layer_1" xmlns="http://www.w3.org/2000/svg" version="1.1" viewBox="0 0 462.46 511.05">
  <!-- Generator: Adobe Illustrator 29.8.2, SVG Export Plug-In . SVG Version: 2.1.1 Build 3)  -->
  <defs>
    <style>
      .st0 {
        fill: #fff;
      }

      .st1 {
        fill: #f97316;
      }
    </style>
  </defs>
  <path class="st1" d="M421.09,99.14c-91.45-131.88-287.45-132.29-379.29-.59-97.53,139.84-14.92,330.53,150.07,360.57l38.38,51.94h2l38.38-51.94c164.58-29.85,247.41-220.17,150.47-359.97Z"/>
  <g>
    <path class="st0" d="M301.41,200.95c1.14,50.36.72,100.8,1.41,151.19.07,5.01,2.06,9.21,1.76,14.91-1.35,26.48-35.68,28.22-38.48,3.41l1.74-168.58c-25.05-10.19-36.73-31.93-35.14-58.78,1.92-32.6,34.32-93.9,72.65-64.35,35.37,27.26,49.48,106.84-3.95,122.19Z"/>
    <path class="st0" d="M190.88,84.57c1.81-6.54,15.54-8.61,16.31.32-1.79,28.13,3.79,62.63.45,90-1.67,13.68-12.71,22.19-25.22,25.22.48,10.53-.28,21.13.03,31.65,1.32,43.83,4.42,89.91,3.56,133.67-.48,24.36-30.14,31.49-38.21,7.99l1.31-171.84-1.67-3.35c-6.78.68-21.76-12.81-21.76-18.37v-96.97c0-6.2,16.72-5.18,16.72,3.34v71.89c3.34,3.89,11.71,3.89,15.05,0v-71.89c0-6.8,12.45-10.56,16.72-3.34v73.56c0,3.51,10.68,5.56,13.95,3.91l2.77-2.24v-73.56Z"/>
  </g>
</svg>