<?xml version="1.0" encoding="UTF-8"?>
<svg id="Layer_1" xmlns="http://www.w3.org/2000/svg" version="1.1" viewBox="0 0 462.46 511.05">
  <!-- Generator: Adobe Illustrator 29.8.2, SVG Export Plug-In . SVG Version: 2.1.1 Build 3)  -->
  <defs>
    <style>
      .st0 {
        fill: #fdfdfe;
      }

      .st1 {
        fill: #22c55e;
      }
    </style>
  </defs>
  <path class="st1" d="M232.23,511.05h-2l-38.38-51.94C26.87,429.08-55.73,238.39,41.79,98.55c91.84-131.7,287.85-131.29,379.29.59,96.94,139.81,14.11,330.12-150.47,359.97l-38.38,51.94h0ZM347.01,235.59v-36.43l-115.44-91.15c-39.5,29.3-77.27,60.96-116.11,91.15v36.43l116.14-90.76,115.41,90.76ZM318.07,321.42v-88.33l-87.18-66.26-86.48,66.26v88.33h57.89v-58.88h57.89v58.88h57.89-.01Z"/>
  <polygon class="st0" points="318.07 321.42 260.18 321.42 260.18 262.54 202.29 262.54 202.29 321.42 144.41 321.42 144.41 233.1 230.89 166.84 318.07 233.1 318.07 321.42"/>
  <path class="st0" d="M347.01,235.59l-115.41-90.76-116.14,90.76v-36.43c38.84-30.19,76.61-61.85,116.11-91.15l115.44,91.15v36.43Z"/>
</svg>